<?xml version="1.0" encoding="utf-8"?>
<!-- Generator: Adobe Illustrator 21.0.0, SVG Export Plug-In . SVG Version: 6.00 Build 0)  -->
<svg version="1.1" id="Layer_1" xmlns="http://www.w3.org/2000/svg" xmlns:xlink="http://www.w3.org/1999/xlink" x="0px" y="0px"
	 viewBox="0 0 152.5 67.3" style="enable-background:new 0 0 152.5 67.3;" xml:space="preserve">
<style type="text/css">
	.st0{fill:#FFFFFF;}
	.st1{fill:#1C3C6A;}
	.st2{clip-path:url(#SVGID_2_);fill:url(#SVGID_3_);}
</style>
<rect x="94.9" y="0.4" class="st0" width="4.8" height="20.8"/>
<path class="st0" d="M87.5,13.1c0,1.6-0.5,3.6-2.7,3.6H67.4c-0.1-0.9-0.1-1.8-0.1-2.8c0-0.4,0-1.8,2-1.8H78V7.7h-9.1
	c-3.5,0-5.8,2.3-5.8,5.8c0,1,0.1,2.1,0.2,3.1H49.7c0.1-0.8,0.1-1.6,0.1-2.4c0-4.1-2.9-6.9-7.1-6.9c-4.1,0-7,2.8-7,6.8
	c0,1,0,1.8,0.1,2.8H23.9V0.4h-4.7v20.4c0,2.1-0.8,3.1-2.3,3.1c-1.3,0-2.6-0.2-4.5-0.8l-1.6-0.5l-1,4.4l1.3,0.5
	c2.2,0.8,3.9,1.1,5.8,1.1c4.2,0,6.8-2.8,7-7.3h21.3L86,21.4h-1.3c0,0,0.1,0,0.1,0l0.2,0v0c4.4-0.2,7.2-3.3,7.2-8.3V0.4h-4.8V13.1z
	 M39.9,16.9c-0.1-1-0.1-1.6-0.1-2.4l0-0.2c0-1.6,1.1-2.7,2.9-2.7c1.4,0,3.1,0.5,3.1,2.8c0,0.8,0,1.6-0.1,2.4H39.9z"/>
<rect x="94.9" y="23.8" class="st0" width="4.8" height="20.9"/>
<path class="st0" d="M87.5,36.5c0,1.6-0.5,3.6-2.7,3.6H64.7c0.1-0.9,0.1-1.8,0.1-2.6c0-3.5-2.3-5.8-5.8-5.8h-8.2v4.3h7.8
	c2,0,2,1.4,2,1.8c0,1,0,1.9-0.2,2.7H23.6v-5.6h-4.4v10.7c0,1.5-0.4,3.3-2.5,3.3c-1.3,0-2.7-0.3-4.5-0.8l-1.4-0.4l-1,4.1L11,52
	c2.2,0.8,3.9,1.1,5.7,1.1c4.2,0,6.8-2.9,6.8-7.6v-0.7h41h20.2h0.4l-0.1,0c4.5-0.1,7.3-3.3,7.3-8.3V23.8h-4.8V36.5z"/>
<path class="st0" d="M145.8,44C125,17.2,98.5,16.4,89.6,21.6l14.3,8c7.4-3.4,25.2-2.5,40.8,13.6c0.5,0.6,1.7,2.1,2.4,3
	c1.2,1.9,2.4,3.9,3.6,6c-1.4-1.1-3.6-2.8-6.4-4.8c-1.3-0.9-2.7-1.8-4.2-2.7c-0.8-0.5-1.5-0.9-2.4-1.4c-0.4-0.2-0.8-0.5-1.3-0.7
	C122,34.7,100,27.6,79.1,40.8l0.1-0.1c-3.2,1.8-7.2,4.9-9,6.6c-0.8,0.7-3,2.6-3.9,3.3c-12.3,8.9-16.9,10.8-19.5,11.7
	c-0.8,0.3-1.6,0.5-2.5,0.7C29,66,17.7,60.4,14,55.5L0.2,55.8C4,62.1,18.6,70,38.7,65.4l0,0c0,0,3.3-0.7,6.5-1.6v0c0,0,0.1,0,0.1,0
	c0.2-0.1,0.5-0.1,0.7-0.2c0.3-0.1,0.6-0.2,0.9-0.3c0.7-0.2,1.4-0.5,2-0.8h0c3.8-1.5,9.7-4.4,18.5-11.5c0.5-0.4,1.2-0.9,1.2-0.9
	c0.6-0.5,1.3-1.1,1.9-1.6c0.2-0.2,0.4-0.3,0.6-0.5l0,0c0.2-0.2,0.4-0.3,0.6-0.5c23.1-20.9,49.5-7.3,61.2,0.8
	c3.9,2.7,7.1,5.5,7.1,5.5h3l9.4-0.2C150.3,50,148.1,46.8,145.8,44"/>
<rect x="94.9" y="23.8" class="st1" width="4.8" height="20.9"/>
<rect x="94.9" y="0.4" class="st1" width="4.8" height="20.8"/>
<path class="st1" d="M87.5,13.1c0,1.6-0.5,3.6-2.7,3.6H67.4c-0.1-0.9-0.1-1.8-0.1-2.8c0-0.4,0-1.8,2-1.8H78V7.7h-9.1
	c-3.5,0-5.8,2.3-5.8,5.8c0,1,0.1,2.1,0.2,3.1H49.7c0.1-0.8,0.1-1.6,0.1-2.4c0-4.1-2.9-6.9-7.1-6.9c-4.1,0-7,2.8-7,6.8
	c0,1,0,1.8,0.1,2.8H23.9V0.4h-4.7v20.4c0,2.1-0.8,3.1-2.3,3.1c-1.3,0-2.6-0.2-4.5-0.8l-1.6-0.5l-1,4.4l1.3,0.5
	c2.2,0.8,3.9,1.1,5.8,1.1c4.2,0,6.8-2.8,7-7.3h21.3L86,21.4h-1.3c0,0,0.1,0,0.1,0l0.2,0v0c4.4-0.2,7.2-3.3,7.2-8.3V0.4h-4.8V13.1z
	 M39.9,16.9c-0.1-1-0.1-1.6-0.1-2.4l0-0.2c0-1.6,1.1-2.7,2.9-2.7c1.4,0,3.1,0.5,3.1,2.8c0,0.8,0,1.6-0.1,2.4H39.9z"/>
<path class="st1" d="M87.5,36.5c0,1.6-0.5,3.6-2.7,3.6H64.7c0.1-0.9,0.1-1.8,0.1-2.6c0-3.5-2.3-5.8-5.8-5.8h-8.2v4.3h7.8
	c2,0,2,1.4,2,1.8c0,1,0,1.9-0.2,2.7H23.6v-5.6h-4.4v10.7c0,1.5-0.4,3.3-2.5,3.3c-1.3,0-2.7-0.3-4.5-0.8l-1.4-0.4l-1,4.1L11,52
	c2.2,0.8,3.9,1.1,5.7,1.1c4.2,0,6.8-2.9,6.8-7.6v-0.7h41h20.2h0.4l-0.1,0c4.5-0.1,7.3-3.3,7.3-8.3V23.8h-4.8V36.5z"/>
<g>
	<defs>
		<path id="SVGID_1_" d="M89.6,21.6l14.3,8c7.4-3.4,25.2-2.5,40.8,13.6c0.5,0.6,1.7,2.1,2.4,3c1.2,1.9,2.4,3.9,3.6,6
			c-1.4-1.1-3.6-2.8-6.4-4.8c-1.3-0.9-2.7-1.8-4.2-2.7c-0.8-0.5-1.5-0.9-2.4-1.4c-0.4-0.2-0.8-0.5-1.3-0.7
			C122,34.7,100,27.6,79.1,40.8l0.1-0.1c-3.2,1.8-7.2,4.9-9,6.6c-0.8,0.7-3,2.6-3.9,3.3c-12.3,8.9-16.9,10.8-19.5,11.7
			c-0.8,0.3-1.6,0.5-2.5,0.7C29,66,17.7,60.4,14,55.5L0.2,55.8C4,62.1,18.6,70,38.7,65.4l0,0c0,0,3.3-0.7,6.5-1.6v0c0,0,0.1,0,0.1,0
			c0.2-0.1,0.5-0.1,0.7-0.2c0.3-0.1,0.6-0.2,0.9-0.3c0.7-0.2,1.4-0.5,2-0.8l0,0c3.8-1.5,9.7-4.3,18.5-11.5c0.5-0.4,1.2-0.9,1.2-0.9
			c0.6-0.5,1.3-1.1,1.9-1.6c0.2-0.2,0.4-0.3,0.6-0.5l0,0c0.2-0.2,0.4-0.3,0.6-0.5c23.1-20.9,49.5-7.3,61.2,0.8
			c3.9,2.7,7.1,5.5,7.1,5.5h3l9.4-0.2c-2.1-3.6-4.3-6.8-6.6-9.6c-14.7-19-32.3-24.9-44.4-24.9C96.3,19.1,92.2,20.1,89.6,21.6"/>
	</defs>
	<clipPath id="SVGID_2_">
		<use xlink:href="#SVGID_1_"  style="overflow:visible;"/>
	</clipPath>
	
		<linearGradient id="SVGID_3_" gradientUnits="userSpaceOnUse" x1="-91.5643" y1="637.8126" x2="-90.5643" y2="637.8126" gradientTransform="matrix(152.1852 0 0 -152.1852 13934.9209 97110.1641)">
		<stop  offset="0" style="stop-color:#49A8BB"/>
		<stop  offset="4.848480e-02" style="stop-color:#49A8BB"/>
		<stop  offset="1" style="stop-color:#466AB0"/>
	</linearGradient>
	<rect x="0.2" y="19.1" class="st2" width="152.2" height="50.9"/>
</g>
</svg>
